<?xml version="1.0" encoding="UTF-8" standalone="no"?>
<svg width="40px" height="44px" viewBox="0 0 40 44" version="1.1" xmlns="http://www.w3.org/2000/svg" xmlns:xlink="http://www.w3.org/1999/xlink">
    <!-- Generator: Sketch 40.1 (33804) - http://www.bohemiancoding.com/sketch -->
    <title>parents</title>
    <desc>Created with Sketch.</desc>
    <defs></defs>
    <g id="Page-1" stroke="none" stroke-width="1" fill="none" fill-rule="evenodd">
        <g id="iPhone-7" transform="translate(-17.000000, -135.000000)" fill="#000000">
            <g id="parents" transform="translate(17.000000, 135.000000)">
                <g id="Group" transform="translate(20.000000, 22.000000) scale(1, -1) translate(-20.000000, -22.000000) ">
                    <g id="Shape">
                        <g>
                            <path d="M26.2523529,0.593405405 L26.2547059,17.9496216 L21.2376471,18.3955676 C21.0711765,18.392 20.9052941,18.4068649 20.7435294,18.4401622 L20.7558824,18.438973 L20.7541176,18.4472973 C19.9076471,18.7101081 19.4211765,19.1162162 19.1294118,19.6923784 L17.1558824,23.5774595 L17.1458824,0.79972973 L12.2482353,0.79972973 L12.2482353,15.0884324 L11.5864706,15.0884324 L11.5864706,0.79972973 L6.69411765,0.79972973 L6.69764706,23.5780541 L4.72352941,19.6923784 C4.13882353,18.5406486 2.77705882,18.0673514 1.68,18.6363784 C0.584705882,19.2042162 0.170588235,20.6003243 0.754705882,21.7514595 L4.62470588,29.3771351 C4.69235294,29.5079459 4.76882353,29.6298378 4.85352941,29.7422162 C5.20235294,30.7625405 6.16176471,31.4962703 7.28941176,31.4962703 L16.5629412,31.4962703 C17.6911765,31.4962703 18.65,30.7619459 18.9988235,29.7422162 C19.0835294,29.6298378 19.1605882,29.5079459 19.2264706,29.3771351 L22.9494118,22.044 L34.4611765,22.044 C35.2982353,22.044 36.0105882,21.4993514 36.2694118,20.7418378 C36.3323529,20.658 36.3894118,20.5682162 36.4382353,20.4707027 L39.3129412,14.8095676 C39.7464706,13.9551351 39.4394118,12.9187568 38.6252941,12.4971892 C37.8111765,12.075027 36.7994118,12.4258378 36.3664706,13.2808649 L34.9011765,16.1652432 L34.8935294,0.593405405 L30.8164706,0.593405405 L30.8164706,9.86313514 L30.3252941,9.86313514 L30.3252941,0.593405405 L26.2523529,0.593405405 L26.2523529,0.593405405 Z M26.7729412,27.6016757 C26.7729412,29.5127027 28.3082353,31.064 30.1994118,31.064 C32.09,31.064 33.6252941,29.5127027 33.6252941,27.6016757 C33.6252941,25.6906486 32.09,24.1381622 30.1994118,24.1381622 C28.3082353,24.1381622 26.7729412,25.6906486 26.7729412,27.6016757 L26.7729412,27.6016757 Z M7.39588235,38.9822162 C7.39588235,41.5568108 9.46352941,43.6468108 12.0105882,43.6468108 C14.5576471,43.6468108 16.6258824,41.5568108 16.6258824,38.9822162 C16.6258824,36.4076216 14.5576471,34.3176216 12.0105882,34.3176216 C9.46352941,34.3176216 7.39588235,36.4076216 7.39588235,38.9822162 L7.39588235,38.9822162 Z"></path>
                        </g>
                    </g>
                </g>
            </g>
        </g>
    </g>
</svg>